<svg width="159" height="22" viewBox="0 0 159 22" fill="none" xmlns="http://www.w3.org/2000/svg">
<path d="M33.9754 0C31.4685 0 28.7339 1.33547 25.8474 3.96825C24.4801 5.20834 23.2837 6.54381 22.4102 7.61219C22.4102 7.61219 23.8154 9.19564 25.3536 10.8936C26.1892 9.86338 27.3856 8.47068 28.7718 7.21155C31.3355 4.86493 33.0066 4.38799 33.9754 4.38799C37.5833 4.38799 40.5079 7.34506 40.5079 11.0081C40.5079 14.633 37.5833 17.59 33.9754 17.6282C33.8041 17.6282 33.5953 17.6091 33.3484 17.5519C34.3928 18.0289 35.5323 18.3723 36.5958 18.3723C43.2043 18.3723 44.4954 13.9079 44.5714 13.5836C44.7612 12.7633 44.8755 11.9048 44.8755 11.0272C44.8564 4.94122 39.9761 0 33.9754 0Z" fill="url(#paint0_linear_54_7144)"/>
<path d="M10.9003 21.9999C13.407 21.9999 16.1415 20.6644 19.028 18.0316C20.3953 16.7915 21.5917 15.4561 22.4653 14.3876C22.4653 14.3876 21.06 12.8042 19.5218 11.1062C18.6862 12.1364 17.4898 13.5291 16.1036 14.7883C13.5399 17.1158 11.8498 17.6119 10.9003 17.6119C7.29217 17.6119 4.36769 14.6548 4.36769 10.9917C4.36769 7.36689 7.29217 4.40981 10.9003 4.37164C11.0712 4.37164 11.28 4.3907 11.527 4.44793C10.4825 3.971 9.3431 3.62759 8.27967 3.62759C1.67112 3.62759 0.379774 8.09189 0.303838 8.4162C0.113951 9.23657 0 10.0951 0 10.9727C0 17.0586 4.88045 21.9999 10.9003 21.9999Z" fill="url(#paint1_linear_54_7144)"/>
<path fill-rule="evenodd" clip-rule="evenodd" d="M15.925 7.30694C15.2034 6.6201 11.6713 3.81563 8.29102 3.72023C2.26719 3.57218 0.496422 7.85848 0.34375 8.41132C1.49759 3.6048 5.79857 0.0190251 10.9117 0C15.08 0 19.2923 4.00037 22.4045 7.61067C22.4096 7.6046 22.4145 7.59869 22.4193 7.59301C22.4193 7.59301 23.8244 9.1765 25.3627 10.8744C25.3627 10.8744 27.1098 12.8968 28.9708 14.6709C29.6925 15.3578 33.2055 18.1241 36.5857 18.2196C42.7767 18.3913 44.4858 13.8698 44.5805 13.5263C43.4415 18.3531 39.1306 21.9589 34.003 21.9779C29.8335 21.9779 25.6197 17.9749 22.4943 14.3636C22.4882 14.371 22.4822 14.3782 22.4766 14.385C22.4766 14.385 21.0714 12.8014 19.5331 11.1035C19.5331 11.1035 17.786 9.08118 15.925 7.30694Z" fill="#29ABE2"/>
<path d="M158.149 6.21444C158.417 6.21444 158.603 6.32191 158.712 6.51014C158.765 6.61762 158.844 6.83268 158.631 7.12838L155.527 11.8599V15.0858C155.527 15.516 155.26 15.7847 154.83 15.7847H154.403C153.975 15.7847 153.707 15.516 153.707 15.0858V11.8599L150.576 7.12838C150.39 6.80585 150.441 6.59079 150.496 6.48321C150.576 6.29508 150.79 6.1875 151.059 6.1875H151.62C151.968 6.1875 152.208 6.32191 152.369 6.61762L154.59 10.1931L156.838 6.61762C156.998 6.34885 157.239 6.21444 157.587 6.21444H158.149Z" fill="#96999C"/>
<path d="M85.3001 6.21606H80.4298C80.0017 6.21606 79.7344 6.48489 79.7344 6.915V15.1144C79.7344 15.5445 80.0017 15.8134 80.4298 15.8134H80.8579C81.2864 15.8134 81.5539 15.5445 81.5539 15.1144V11.8883H84.7383C85.1664 11.8883 85.4337 11.5927 85.4337 11.1894V11.0012C85.4337 10.5711 85.1664 10.3022 84.7383 10.3022H81.5539V7.77524H85.3001C85.7281 7.77524 85.9961 7.50642 85.9961 7.0763V6.88812C85.9961 6.48488 85.7281 6.21606 85.3001 6.21606Z" fill="#96999C"/>
<path fill-rule="evenodd" clip-rule="evenodd" d="M66.0594 6.21646H63.571C63.1425 6.21646 62.875 6.48528 62.875 6.9154V15.1148C62.875 15.5449 63.1425 15.8138 63.571 15.8138H66.0859C68.9761 15.8138 70.9831 13.8514 70.9831 11.0286C70.9562 8.20581 68.9491 6.21646 66.0594 6.21646ZM69.1097 11.0016C69.1097 12.8834 67.852 14.2007 66.0326 14.2007H64.6945V7.77563H66.0326C67.852 7.80257 69.1097 9.11987 69.1097 11.0016Z" fill="#96999C"/>
<path d="M96.5079 6.21606H96.9365C97.3645 6.21606 97.632 6.48489 97.632 6.915V15.1144C97.632 15.5445 97.3645 15.8134 96.9365 15.8134H96.5079C96.0798 15.8134 95.8125 15.5445 95.8125 15.1144V6.915C95.8125 6.48489 96.0798 6.21606 96.5079 6.21606Z" fill="#96999C"/>
<path d="M114.359 6.21606H113.931C113.503 6.21606 113.235 6.48489 113.235 6.915V12.3722L108.98 6.59237C108.793 6.32354 108.552 6.21606 108.231 6.21606H108.044C107.615 6.21606 107.348 6.48489 107.348 6.915V15.1144C107.348 15.5445 107.615 15.8134 108.044 15.8134H108.472C108.9 15.8134 109.168 15.5445 109.168 15.1144V9.63017L113.422 15.437C113.609 15.7057 113.85 15.8134 114.172 15.8134H114.359C114.787 15.8134 115.055 15.5445 115.055 15.1144V6.915C115.055 6.48489 114.787 6.21606 114.359 6.21606Z" fill="#96999C"/>
<path d="M125.453 6.21606H125.882C126.283 6.21606 126.578 6.48489 126.578 6.915V15.1144C126.578 15.5445 126.31 15.8134 125.882 15.8134H125.453C125.026 15.8134 124.758 15.5445 124.758 15.1144V6.915C124.758 6.48489 125.026 6.21606 125.453 6.21606Z" fill="#96999C"/>
<path d="M142.711 6.21606H136.289C135.889 6.21606 135.594 6.48489 135.594 6.915V7.10318C135.594 7.50642 135.861 7.80213 136.289 7.80213H138.591V15.1144C138.591 15.5445 138.858 15.8134 139.286 15.8134H139.714C140.143 15.8134 140.41 15.5445 140.41 15.1144V7.80213H142.711C143.14 7.80213 143.407 7.5333 143.407 7.10318V6.915C143.407 6.48489 143.14 6.21606 142.711 6.21606Z" fill="#96999C"/>
<defs>
<linearGradient id="paint0_linear_54_7144" x1="28.2582" y1="4.1078" x2="40.7714" y2="16.9931" gradientUnits="userSpaceOnUse">
<stop offset="0.21" stop-color="#F15A24"/>
<stop offset="0.6841" stop-color="#FBB03B"/>
</linearGradient>
<linearGradient id="paint1_linear_54_7144" x1="16.605" y1="17.8865" x2="4.09169" y2="5.00123" gradientUnits="userSpaceOnUse">
<stop offset="0.21" stop-color="#ED1E79"/>
<stop offset="0.8929" stop-color="#522785"/>
</linearGradient>
</defs>
</svg>
