<svg width="142" height="24" viewBox="0 0 142 24" fill="none" xmlns="http://www.w3.org/2000/svg">
<path d="M137.971 19.9248L136.494 15.8702H129.286L127.809 19.9248H124.155L130.963 2.17969H134.968L141.725 19.9248H137.971ZM132.89 6.00903L130.437 12.7166H135.343L132.89 6.00903Z" fill="white"/>
<path d="M111.296 14.5187V13.3424L114.625 12.7417V14.3685C114.65 16.1956 115.676 17.0215 117.077 17.0215C118.529 17.0215 119.43 15.9954 119.43 14.4436V2.17969H122.884V14.4436C122.884 17.6472 120.556 20.3003 117.102 20.3003C113.599 20.3003 111.296 17.9976 111.296 14.5187Z" fill="white"/>
<path d="M109.178 19.9248H105.549L97.4901 7.33554V19.9248H94.0361V2.17969H98.341L105.724 13.918V2.17969H109.178V19.9248Z" fill="white"/>
<path d="M90.3907 19.9248H86.8867V2.17969H90.3907V19.9248Z" fill="white"/>
<path d="M83.2213 19.9248H79.5922L71.533 7.33554V19.9248H68.0791V2.17969H72.384L79.7674 13.918V2.17969H83.2213V19.9248Z" fill="white"/>
<path d="M29.0454 10.2619H31.7735C33.5004 10.2619 34.5516 9.26077 34.5516 7.73404C34.5516 6.15725 33.5004 5.18114 31.7735 5.18114H29.0454V10.2619ZM32.1989 13.2403H29.0203V19.9229H25.5664V2.17773H32.1989C35.7029 2.17773 38.0306 4.50538 38.0306 7.70901C38.0306 10.9377 35.7029 13.2403 32.1989 13.2403Z" fill="white"/>
<path d="M15.183 20.2987C10.2273 20.2987 6.09766 16.7197 6.09766 11.0632C6.09766 5.40682 10.3775 1.80273 15.1329 1.80273C20.0385 1.80273 22.5664 4.80614 23.2671 7.68441L20.0135 8.71058C19.588 7.00864 18.2114 5.13151 15.1329 5.13151C12.4799 5.13151 9.67672 7.03367 9.67672 11.0632C9.67672 14.8425 12.3297 16.9199 15.183 16.9199C18.2114 16.9199 19.6881 14.9426 20.1636 13.2908L23.3923 14.2669C22.7165 16.995 20.1636 20.2987 15.183 20.2987Z" fill="white"/>
<path d="M3.50398 19.9229H0V2.17773H3.50398V19.9229Z" fill="white"/>
<path fill-rule="evenodd" clip-rule="evenodd" d="M41.6866 4.16751L51.4701 7.20302L59.8469 1.18933L56.6798 11.0536L63.3053 19.689L53.0083 16.1714L44.4602 22.5259L47.74 12.2843L41.6866 4.16751ZM52.4237 12.7978C53.0541 12.6509 53.446 12.0207 53.2991 11.3903C53.1522 10.7599 52.5221 10.3679 51.8917 10.5148C51.2612 10.6617 50.8693 11.2919 51.0162 11.9223C51.1631 12.5527 51.7932 12.9447 52.4237 12.7978Z" fill="#FF00A8"/>
</svg>
