<svg width="46" height="22" viewBox="0 0 46 22" fill="none" xmlns="http://www.w3.org/2000/svg">
<path d="M33.9754 0C31.4685 0 28.7339 1.33547 25.8474 3.96825C24.4801 5.20834 23.2837 6.54381 22.4102 7.61219C22.4102 7.61219 23.8154 9.19564 25.3536 10.8936C26.1892 9.86338 27.3856 8.47068 28.7718 7.21155C31.3355 4.86493 33.0066 4.38799 33.9754 4.38799C37.5833 4.38799 40.5079 7.34506 40.5079 11.0081C40.5079 14.633 37.5833 17.59 33.9754 17.6282C33.8041 17.6282 33.5953 17.6091 33.3484 17.5519C34.3928 18.0289 35.5323 18.3723 36.5958 18.3723C43.2043 18.3723 44.4954 13.9079 44.5714 13.5836C44.7612 12.7633 44.8755 11.9048 44.8755 11.0272C44.8564 4.94122 39.9761 0 33.9754 0Z" fill="url(#paint0_linear_54_7144)"/>
<path d="M10.9003 21.9999C13.407 21.9999 16.1415 20.6644 19.028 18.0316C20.3953 16.7915 21.5917 15.4561 22.4653 14.3876C22.4653 14.3876 21.06 12.8042 19.5218 11.1062C18.6862 12.1364 17.4898 13.5291 16.1036 14.7883C13.5399 17.1158 11.8498 17.6119 10.9003 17.6119C7.29217 17.6119 4.36769 14.6548 4.36769 10.9917C4.36769 7.36689 7.29217 4.40981 10.9003 4.37164C11.0712 4.37164 11.28 4.3907 11.527 4.44793C10.4825 3.971 9.3431 3.62759 8.27967 3.62759C1.67112 3.62759 0.379774 8.09189 0.303838 8.4162C0.113951 9.23657 0 10.0951 0 10.9727C0 17.0586 4.88045 21.9999 10.9003 21.9999Z" fill="url(#paint1_linear_54_7144)"/>
<path fill-rule="evenodd" clip-rule="evenodd" d="M15.925 7.30694C15.2034 6.6201 11.6713 3.81563 8.29102 3.72023C2.26719 3.57218 0.496422 7.85848 0.34375 8.41132C1.49759 3.6048 5.79857 0.0190251 10.9117 0C15.08 0 19.2923 4.00037 22.4045 7.61067C22.4096 7.6046 22.4145 7.59869 22.4193 7.59301C22.4193 7.59301 23.8244 9.1765 25.3627 10.8744C25.3627 10.8744 27.1098 12.8968 28.9708 14.6709C29.6925 15.3578 33.2055 18.1241 36.5857 18.2196C42.7767 18.3913 44.4858 13.8698 44.5805 13.5263C43.4415 18.3531 39.1306 21.9589 34.003 21.9779C29.8335 21.9779 25.6197 17.9749 22.4943 14.3636C22.4882 14.371 22.4822 14.3782 22.4766 14.385C22.4766 14.385 21.0714 12.8014 19.5331 11.1035C19.5331 11.1035 17.786 9.08118 15.925 7.30694Z" fill="#29ABE2"/>
<defs>
<linearGradient id="paint0_linear_54_7144" x1="28.2582" y1="4.1078" x2="40.7714" y2="16.9931" gradientUnits="userSpaceOnUse">
<stop offset="0.21" stop-color="#F15A24"/>
<stop offset="0.6841" stop-color="#FBB03B"/>
</linearGradient>
<linearGradient id="paint1_linear_54_7144" x1="16.605" y1="17.8865" x2="4.09169" y2="5.00123" gradientUnits="userSpaceOnUse">
<stop offset="0.21" stop-color="#ED1E79"/>
<stop offset="0.8929" stop-color="#522785"/>
</linearGradient>
</defs>
</svg>
