<svg width="64" height="64" viewBox="0 0 64 64" fill="none" xmlns="http://www.w3.org/2000/svg">
<g clip-path="url(#clip0_558_3209)">
<circle cx="32" cy="32" r="32" fill="url(#paint0_linear_558_3209)"/>
<path fill-rule="evenodd" clip-rule="evenodd" d="M35.5086 48.6098L34.7387 52.0151C34.6237 52.5235 34.1374 52.859 33.6222 52.7793C32.4482 52.5979 31.2584 52.3894 30.0564 52.1591C29.5045 52.0534 29.1526 51.5103 29.2765 50.9622L29.9735 47.8793C29.4854 47.7837 28.9942 47.6803 28.5005 47.5697C28.0554 47.4682 27.6147 47.3622 27.1789 47.2517L26.4822 50.3336C26.3583 50.8815 25.8076 51.2203 25.264 51.079C24.0798 50.771 22.916 50.449 21.778 50.1097C21.2778 49.9605 20.9822 49.448 21.0973 48.9389L21.8632 45.5512C14.2939 42.5159 9.51524 37.3571 11.5435 28.5473L12.0315 26.3886C13.9943 17.5457 20.5251 14.9543 28.6628 15.4753L29.4282 12.0899C29.5433 11.5807 30.0307 11.2452 30.5465 11.3258C31.7197 11.5091 32.9088 11.719 34.1103 11.9505C34.6618 12.0567 35.0132 12.5995 34.8893 13.1473L34.1926 16.2292C34.6335 16.3169 35.0769 16.4109 35.5224 16.5107C36.016 16.6223 36.5041 16.7393 36.986 16.8621L37.6823 13.782C37.8062 13.2339 38.3575 12.895 38.9012 13.037C40.0853 13.3461 41.2491 13.6697 42.387 14.0108C42.8864 14.1605 43.1812 14.6726 43.0662 15.1811L42.2985 18.577C49.7691 21.6116 54.4382 26.7666 52.4573 35.5281L51.9693 37.6869C50.0233 46.4547 43.5626 49.0795 35.5086 48.6098ZM46.4916 35.933L46.7663 34.7182C48.7004 26.6813 42.2694 23.6796 34.3411 21.771C26.3257 20.075 19.2288 20.0183 17.5176 28.1056L17.2429 29.3204C15.3004 37.3941 21.7315 40.3958 29.6969 42.3128C37.6752 44.0004 44.7721 44.0571 46.4916 35.933Z" fill="white"/>
</g>
<defs>
<linearGradient id="paint0_linear_558_3209" x1="32" y1="0" x2="32" y2="64" gradientUnits="userSpaceOnUse">
<stop stop-color="#0066FF"/>
<stop offset="1" stop-color="#0066FF"/>
</linearGradient>
<clipPath id="clip0_558_3209">
<rect width="64" height="64" fill="white"/>
</clipPath>
</defs>
</svg>
